<?xml version="1.0" encoding="UTF-8"?>
		<!DOCTYPE svg PUBLIC "-//W3C//DTD SVG 1.1//EN" "http://www.w3.org/Graphics/SVG/1.1/DTD/svg11.dtd">
		<svg version="1.1" id="Layer_1" xmlns="http://www.w3.org/2000/svg" xmlns:xlink="http://www.w3.org/1999/xlink" x="0px" y="0px"
		 width="1700px" height="1054.7411112027px" viewBox="0 0 197.4 109.69083393554"
		 style="enable-background:new 0 0 157.4 89.69083393554;" xml:space="preserve"><style type='text/css'>.title{fill:#e11900;}.slogan{fill:#014a59;}</style><g transform="scale(2.5899696487932) translate(0, 0)"><g>
	<g>
		<path fill="#ded9d9" d="M29.439,14.623V9.549l-2.621-0.658l-5.74-1.447v12.506c0.75-0.133,1.471-0.207,2.16-0.244
			c0.271-0.01,0.541-0.02,0.801-0.02c1.029,0,1.961,0.104,2.779,0.291c1.01,0.217,1.871,0.564,2.621,0.996
			c0.869,0.498,1.58,1.1,2.16,1.775v-7.582L29.439,14.623z"/>
		<g>
			<path fill="#ded9d9" d="M8.208,23.173c0.02,0.009,0.881,0.686,1.83,1.418c-0.76-0.141-1.4-0.338-1.891-0.592
				c-0.1-0.047-0.309-0.178-0.6-0.356C7.308,23.492,7,23.314,6.669,23.107c-1.311-0.809-2.451-1.503-3.281-1.973
				c0.23-0.207,0.561-0.311,0.971-0.32V10.799L7.548,9.7v12.929c0.041,0.037,0.08,0.065,0.121,0.104
				C7.859,22.882,8.039,23.033,8.208,23.173z"/>
		</g>
		<path fill="#ded9d9" d="M15.328,0v20.73c-0.26,0.02-0.539,0.027-0.84,0.047c-0.309,0.019-0.51,0.028-0.529,0.028
			c-0.779,0.075-1.52,0.742-1.699,1.541c-0.041,0.188-0.051,0.376-0.021,0.554l-2.02,0.695V1.757L15.328,0z"/>
	</g>
	<g>
		<g>
			<g>
				<path fill="#e11900" d="M34.595,31.052c-1.234,1.1-3.5,1.223-5.623,1.034c-2.031-0.179-3.949-0.639-4.764-0.808
					c-2.592-0.536-6.25-0.301-8.262-0.508c-3.379-0.329-6.832-0.573-10.34-2.979c-0.02-0.01-0.029-0.019-0.029-0.019
					c-0.889-0.61-1.777-1.372-2.676-2.302c-0.795-0.827-2.396-2.537-2.9-3.102c0.252-0.244,0.758-0.657,1.291-0.657
					c0.141,0,0.271,0.028,0.402,0.085c1.01,0.441,5.23,3.119,5.754,3.392c2.93,1.522,8.414,0.978,9.227,0.854
					c0.123-0.018,0.244-0.037,0.357-0.056c0,0,0,0,0.008,0c3.023-0.451,3.322-0.874,3.426-1.015c0.15-0.207,0.102-0.376,0.064-0.461
					c-0.131-0.244-0.477-0.281-0.795-0.281c-0.59,0-2.441,0.084-4.08-0.282h-0.037c-0.383-0.095-0.758-0.207-1.104-0.348
					c-0.553-0.226-0.908-0.64-0.834-0.987c0.057-0.254,0.318-0.441,0.422-0.451c0.178-0.018,4.145-0.188,4.986-0.403
					C32.65,18.284,32.041,28.657,34.595,31.052z"/>
			</g>
		</g>
		<path fill="#ded9d9" d="M28.972,32.086c-2.031-0.179-3.949-0.639-4.764-0.808c-2.592-0.536-6.25-0.301-8.262-0.508
			c-3.379-0.329-6.832-0.573-10.34-2.979c0.326,0.15,3.004,1.391,6.559,1.418C15.957,29.24,21.841,28.911,28.972,32.086z"/>
		<path fill="#ded9d9" d="M22.019,24.691c-0.299,0.903-4.707,1.279-4.979,1.298c3.023-0.451,3.322-0.874,3.426-1.015
			c0.15-0.207,0.102-0.376,0.064-0.461c-0.131-0.244-0.477-0.281-0.795-0.281c-0.59,0-2.441,0.084-4.08-0.282
			c1.516,0.216,3.453-0.075,4.482-0.329C21.177,23.376,22.328,23.771,22.019,24.691z"/>
	</g>
	<g>
		<path fill="#ff1900" d="M15.328,0v20.73c0.211-0.01,0.4-0.019,0.58-0.027c2.021-0.133,2.631-0.217,2.801-0.254
			c0.82-0.217,1.609-0.386,2.369-0.498c0.75-0.133,1.471-1.207,2.16-1.244c0.271-0.01,0.541-0.02,0.801-0.02
			c1.029,0,1.961,1.104,2.779,1.291V2.885L15.328,0z"/>
		<path fill="#ff1900" d="M7.548,23.643c0.291,0.179,0.5,0.31,0.6,0.356c0.49,0.254,1.131,0.451,1.891,0.592
			c0.061,0.038,0.18,0.038,0.18,0.038V10.376L7.548,9.7V23.643z"/>
	</g>
	<g>
		<path fill="#ded9d9" d="M15.328,11.672v9.058c-0.26,0.02-0.539,0.027-0.84,0.047c-0.309,0.019-0.51,0.028-0.529,0.028
			c-0.779,0.075-1.52,0.742-1.699,1.541c-0.041,0.188-0.051,0.376-0.021,0.554c0.07,0.799,0.711,1.541,1.701,1.955
			c0.01,0,0.029,0.01,0.039,0.019h-0.57c-1.199,0-2.279-0.085-3.189-0.244V10.376L15.328,11.672z"/>
		<path fill="#ded9d9" d="M26.818,8.891v11.087c-0.818-0.188-1.75-0.291-2.779-0.291c-0.26,0-0.529,0.01-0.801,0.02
			c-0.689,0.037-1.41,0.111-2.16,0.244V7.444L26.818,8.891z"/>
	</g>
</g>
</g><g transform="scale(0.012451171875) translate(8224.1254901961, 3521.3887823527)"><path transform="translate(0,0) rotate(180) scale(-1, 1)" d="M1303 -305c0 -6.66699 -1.66699 -12.333 -5 -17s-9.16602 -8.5 -17.499 -11.5s-20 -5.33301 -35 -7s-33.833 -2.5 -56.5 -2.5s-41.334 0.833008 -56.001 2.5s-26.5 4 -35.5 7s-15.333 6.83301 -19 11.5s-5.5 10.334 -5.5 17.001v305h-856 c-23.333 0 -41.833 6.83301 -55.5 20.5s-20.5 34.5 -20.5 62.5v1177c0 6.66699 2.16699 12.5 6.5 17.5s11.5 9.16699 21.5 12.5s23.5 5.83301 40.5 7.5s38.167 2.5 63.5 2.5c26 0 47.333 -0.833008 64 -2.5s30 -4.16699 40 -7.5s17 -7.5 21 -12.5s6 -10.833 6 -17.5v-1042 h478v1042c0 6.66699 2.16699 12.5 6.5 17.5s11.5 9.16699 21.5 12.5s23.5 5.83301 40.5 7.5s38.167 2.5 63.5 2.5c26 0 47.333 -0.833008 64 -2.5s30 -4.16699 40 -7.5s17 -7.5 21 -12.5s6 -10.833 6 -17.5v-1042h114c16.667 0 28.167 -3.83301 34.5 -11.5 s9.5 -21.834 9.5 -42.501v-469z" class='title'/><path transform="translate(1347,0) rotate(180) scale(-1, 1)" d="M1036 196c0 -16.667 -0.505859 -30.8301 -1.50586 -42.4971s-2.5 -21.667 -4.5 -30s-4.66699 -15.5 -8 -21.5s-8.66602 -12.833 -15.999 -20.5s-21.5 -17.5 -42.5 -29.5s-46.667 -23.5 -77 -34.5s-65 -20.167 -104 -27.5s-81.167 -11 -126.5 -11 c-88.667 0 -168.667 13.667 -240 41s-132 68.166 -182 122.499s-88.333 122.166 -115 203.499s-40 176 -40 284c0 110 14.667 207.667 44 293s70.333 157 123 215s115.834 102 189.501 132s154.834 45 243.501 45c36 0 70.667 -3 104 -9s64.166 -13.833 92.499 -23.5 s53.833 -20.834 76.5 -33.501s38.5 -23.5 47.5 -32.5s15.167 -16.5 18.5 -22.5s6 -13.667 8 -23s3.5 -20.333 4.5 -33s1.5 -28.334 1.5 -47.001c0 -20 -0.666992 -37 -2 -51s-3.66602 -25.333 -6.99902 -34s-7.33301 -15 -12 -19s-10 -6 -16 -6 c-10 0 -22.667 5.83301 -38 17.5s-35.166 24.667 -59.499 39s-53.333 27.333 -87 39s-73.834 17.5 -120.501 17.5c-51.333 0 -97.166 -10.5 -137.499 -31.5s-74.666 -51 -102.999 -90s-49.833 -86.167 -64.5 -141.5s-22 -117.666 -22 -186.999 c0 -76 7.83301 -141.833 23.5 -197.5s38 -101.5 67 -137.5s64 -62.833 105 -80.5s87.167 -26.5 138.5 -26.5c46.667 0 87 5.5 121 16.5s63.167 23.167 87.5 36.5s44.333 25.333 60 36s27.834 16 36.501 16c6.66699 0 12 -1.33301 16 -4s7.33301 -8 10 -16 s4.66699 -19.167 6 -33.5s2 -33.5 2 -57.5z" class='title'/><path transform="translate(2431,0) rotate(180) scale(-1, 1)" d="M1649 36c0 -6.66699 -1.83105 -12.666 -5.49805 -17.999s-10.334 -9.66602 -20.001 -12.999s-22.5 -6 -38.5 -8s-36.333 -3 -61 -3c-24 0 -44 1 -60 3s-28.667 4.66699 -38 8s-16 7.66602 -20 12.999s-6 11.333 -6 18v1053h-2l-375 -1052 c-2.66699 -8.66699 -7 -15.834 -13 -21.501s-14.167 -10.167 -24.5 -13.5s-23.5 -5.5 -39.5 -6.5s-35.333 -1.5 -58 -1.5s-42 0.833008 -58 2.5s-29.167 4.33398 -39.5 8.00098s-18.5 8.16699 -24.5 13.5s-10 11.666 -12 18.999l-362 1052h-2v-1053 c0 -6.66699 -1.83301 -12.667 -5.5 -18s-10.5 -9.66602 -20.5 -12.999s-22.833 -6 -38.5 -8s-35.834 -3 -60.501 -3c-24 0 -44 1 -60 3s-28.833 4.66699 -38.5 8s-16.334 7.66602 -20.001 12.999s-5.5 11.333 -5.5 18v1153c0 34 9 60 27 78s42 27 72 27h172 c30.667 0 57 -2.5 79 -7.5s41 -13.333 57 -25s29.333 -27 40 -46s20 -42.5 28 -70.5l280 -771h4l290 769c8.66699 28 18.167 51.667 28.5 71s22.333 35 36 47s29.834 20.5 48.501 25.5s40.334 7.5 65.001 7.5h177c18 0 33.5 -2.33301 46.5 -7s23.667 -11.5 32 -20.5 s14.666 -20 18.999 -33s6.5 -27.833 6.5 -44.5v-1153z" class='title'/></g></svg>